<svg width="189" height="30" viewBox="0 0 189 30" fill="none" xmlns="http://www.w3.org/2000/svg">
<path d="M42.44 17.68L40.19 11.85C40.1233 11.6767 40.0533 11.4767 39.98 11.25C39.9067 11.0167 39.8367 10.77 39.77 10.51C39.63 11.05 39.4867 11.5 39.34 11.86L37.09 17.68H42.44ZM46.48 23H44.98C44.8067 23 44.6667 22.9567 44.56 22.87C44.4533 22.7833 44.3733 22.6733 44.32 22.54L42.98 19.08H36.55L35.21 22.54C35.17 22.66 35.0933 22.7667 34.98 22.86C34.8667 22.9533 34.7267 23 34.56 23H33.06L38.79 8.67H40.75L46.48 23ZM56.2244 12.87L52.0944 23H50.4944L46.3644 12.87H47.8144C47.961 12.87 48.081 12.9067 48.1744 12.98C48.2677 13.0533 48.331 13.14 48.3644 13.24L50.9344 19.76C51.0144 20.0067 51.0844 20.2467 51.1444 20.48C51.2044 20.7133 51.261 20.9467 51.3144 21.18C51.3677 20.9467 51.4244 20.7133 51.4844 20.48C51.5444 20.2467 51.6177 20.0067 51.7044 19.76L54.3044 13.24C54.3444 13.1333 54.411 13.0467 54.5044 12.98C54.5977 12.9067 54.7077 12.87 54.8344 12.87H56.2244ZM63.532 18.44C62.712 18.4667 62.012 18.5333 61.432 18.64C60.8587 18.74 60.3887 18.8733 60.022 19.04C59.662 19.2067 59.3987 19.4033 59.232 19.63C59.072 19.8567 58.992 20.11 58.992 20.39C58.992 20.6567 59.0354 20.8867 59.122 21.08C59.2087 21.2733 59.3254 21.4333 59.472 21.56C59.6254 21.68 59.802 21.77 60.002 21.83C60.2087 21.8833 60.4287 21.91 60.662 21.91C60.9754 21.91 61.262 21.88 61.522 21.82C61.782 21.7533 62.0254 21.66 62.252 21.54C62.4854 21.42 62.7054 21.2767 62.912 21.11C63.1254 20.9433 63.332 20.7533 63.532 20.54V18.44ZM57.782 14.3C58.342 13.76 58.9454 13.3567 59.592 13.09C60.2387 12.8233 60.9554 12.69 61.742 12.69C62.3087 12.69 62.812 12.7833 63.252 12.97C63.692 13.1567 64.062 13.4167 64.362 13.75C64.662 14.0833 64.8887 14.4867 65.042 14.96C65.1954 15.4333 65.272 15.9533 65.272 16.52V23H64.482C64.3087 23 64.1754 22.9733 64.082 22.92C63.9887 22.86 63.9154 22.7467 63.862 22.58L63.662 21.62C63.3954 21.8667 63.1354 22.0867 62.882 22.28C62.6287 22.4667 62.362 22.6267 62.082 22.76C61.802 22.8867 61.502 22.9833 61.182 23.05C60.8687 23.1233 60.5187 23.16 60.132 23.16C59.7387 23.16 59.3687 23.1067 59.022 23C58.6754 22.8867 58.372 22.72 58.112 22.5C57.8587 22.28 57.6554 22.0033 57.502 21.67C57.3554 21.33 57.282 20.93 57.282 20.47C57.282 20.07 57.392 19.6867 57.612 19.32C57.832 18.9467 58.1887 18.6167 58.682 18.33C59.1754 18.0433 59.8187 17.81 60.612 17.63C61.4054 17.4433 62.3787 17.3367 63.532 17.31V16.52C63.532 15.7333 63.362 15.14 63.022 14.74C62.682 14.3333 62.1854 14.13 61.532 14.13C61.092 14.13 60.722 14.1867 60.422 14.3C60.1287 14.4067 59.872 14.53 59.652 14.67C59.4387 14.8033 59.252 14.9267 59.092 15.04C58.9387 15.1467 58.7854 15.2 58.632 15.2C58.512 15.2 58.4087 15.17 58.322 15.11C58.2354 15.0433 58.162 14.9633 58.102 14.87L57.782 14.3ZM70.2634 12.87V23H68.4834V12.87H70.2634ZM70.6434 9.69C70.6434 9.86333 70.6068 10.0267 70.5334 10.18C70.4668 10.3267 70.3734 10.46 70.2534 10.58C70.1401 10.6933 70.0034 10.7833 69.8434 10.85C69.6901 10.9167 69.5268 10.95 69.3534 10.95C69.1801 10.95 69.0168 10.9167 68.8634 10.85C68.7168 10.7833 68.5868 10.6933 68.4734 10.58C68.3601 10.46 68.2701 10.3267 68.2034 10.18C68.1368 10.0267 68.1034 9.86333 68.1034 9.69C68.1034 9.51667 68.1368 9.35333 68.2034 9.2C68.2701 9.04 68.3601 8.90333 68.4734 8.79C68.5868 8.67 68.7168 8.57667 68.8634 8.51C69.0168 8.44333 69.1801 8.41 69.3534 8.41C69.5268 8.41 69.6901 8.44333 69.8434 8.51C70.0034 8.57667 70.1401 8.67 70.2534 8.79C70.3734 8.90333 70.4668 9.04 70.5334 9.2C70.6068 9.35333 70.6434 9.51667 70.6434 9.69ZM75.4281 8.27V23H73.6481V8.27H75.4281ZM84.2047 18.44C83.3847 18.4667 82.6847 18.5333 82.1047 18.64C81.5314 18.74 81.0614 18.8733 80.6947 19.04C80.3347 19.2067 80.0714 19.4033 79.9047 19.63C79.7447 19.8567 79.6647 20.11 79.6647 20.39C79.6647 20.6567 79.708 20.8867 79.7947 21.08C79.8814 21.2733 79.998 21.4333 80.1447 21.56C80.298 21.68 80.4747 21.77 80.6747 21.83C80.8814 21.8833 81.1014 21.91 81.3347 21.91C81.648 21.91 81.9347 21.88 82.1947 21.82C82.4547 21.7533 82.698 21.66 82.9247 21.54C83.158 21.42 83.378 21.2767 83.5847 21.11C83.798 20.9433 84.0047 20.7533 84.2047 20.54V18.44ZM78.4547 14.3C79.0147 13.76 79.618 13.3567 80.2647 13.09C80.9114 12.8233 81.628 12.69 82.4147 12.69C82.9814 12.69 83.4847 12.7833 83.9247 12.97C84.3647 13.1567 84.7347 13.4167 85.0347 13.75C85.3347 14.0833 85.5614 14.4867 85.7147 14.96C85.868 15.4333 85.9447 15.9533 85.9447 16.52V23H85.1547C84.9814 23 84.848 22.9733 84.7547 22.92C84.6614 22.86 84.588 22.7467 84.5347 22.58L84.3347 21.62C84.068 21.8667 83.808 22.0867 83.5547 22.28C83.3014 22.4667 83.0347 22.6267 82.7547 22.76C82.4747 22.8867 82.1747 22.9833 81.8547 23.05C81.5414 23.1233 81.1914 23.16 80.8047 23.16C80.4114 23.16 80.0414 23.1067 79.6947 23C79.348 22.8867 79.0447 22.72 78.7847 22.5C78.5314 22.28 78.328 22.0033 78.1747 21.67C78.028 21.33 77.9547 20.93 77.9547 20.47C77.9547 20.07 78.0647 19.6867 78.2847 19.32C78.5047 18.9467 78.8614 18.6167 79.3547 18.33C79.848 18.0433 80.4914 17.81 81.2847 17.63C82.078 17.4433 83.0514 17.3367 84.2047 17.31V16.52C84.2047 15.7333 84.0347 15.14 83.6947 14.74C83.3547 14.3333 82.858 14.13 82.2047 14.13C81.7647 14.13 81.3947 14.1867 81.0947 14.3C80.8014 14.4067 80.5447 14.53 80.3247 14.67C80.1114 14.8033 79.9247 14.9267 79.7647 15.04C79.6114 15.1467 79.458 15.2 79.3047 15.2C79.1847 15.2 79.0814 15.17 78.9947 15.11C78.908 15.0433 78.8347 14.9633 78.7747 14.87L78.4547 14.3ZM90.8461 20.56C91.1728 21 91.5294 21.31 91.9161 21.49C92.3094 21.67 92.7394 21.76 93.2061 21.76C94.1594 21.76 94.8894 21.4233 95.3961 20.75C95.9028 20.0767 96.1561 19.0733 96.1561 17.74C96.1561 16.5 95.9294 15.59 95.4761 15.01C95.0294 14.4233 94.3894 14.13 93.5561 14.13C92.9761 14.13 92.4694 14.2633 92.0361 14.53C91.6094 14.7967 91.2128 15.1733 90.8461 15.66V20.56ZM90.8461 14.33C91.2728 13.8367 91.7528 13.4433 92.2861 13.15C92.8261 12.8567 93.4461 12.71 94.1461 12.71C94.7394 12.71 95.2728 12.8233 95.7461 13.05C96.2261 13.2767 96.6328 13.6067 96.9661 14.04C97.2994 14.4667 97.5528 14.9867 97.7261 15.6C97.9061 16.2133 97.9961 16.9033 97.9961 17.67C97.9961 18.49 97.8961 19.2367 97.6961 19.91C97.4961 20.5833 97.2061 21.16 96.8261 21.64C96.4528 22.1133 95.9961 22.4833 95.4561 22.75C94.9161 23.01 94.3094 23.14 93.6361 23.14C92.9694 23.14 92.4061 23.0167 91.9461 22.77C91.4928 22.5167 91.0961 22.16 90.7561 21.7L90.6661 22.62C90.6128 22.8733 90.4594 23 90.2061 23H89.0561V8.27H90.8461V14.33ZM102.488 8.27V23H100.708V8.27H102.488ZM112.554 16.83C112.554 16.4167 112.494 16.04 112.374 15.7C112.261 15.3533 112.091 15.0567 111.864 14.81C111.644 14.5567 111.374 14.3633 111.054 14.23C110.734 14.09 110.371 14.02 109.964 14.02C109.111 14.02 108.434 14.27 107.934 14.77C107.441 15.2633 107.134 15.95 107.014 16.83H112.554ZM113.994 21.58C113.774 21.8467 113.511 22.08 113.204 22.28C112.897 22.4733 112.567 22.6333 112.214 22.76C111.867 22.8867 111.507 22.98 111.134 23.04C110.761 23.1067 110.391 23.14 110.024 23.14C109.324 23.14 108.677 23.0233 108.084 22.79C107.497 22.55 106.987 22.2033 106.554 21.75C106.127 21.29 105.794 20.7233 105.554 20.05C105.314 19.3767 105.194 18.6033 105.194 17.73C105.194 17.0233 105.301 16.3633 105.514 15.75C105.734 15.1367 106.047 14.6067 106.454 14.16C106.861 13.7067 107.357 13.3533 107.944 13.1C108.531 12.84 109.191 12.71 109.924 12.71C110.531 12.71 111.091 12.8133 111.604 13.02C112.124 13.22 112.571 13.5133 112.944 13.9C113.324 14.28 113.621 14.7533 113.834 15.32C114.047 15.88 114.154 16.52 114.154 17.24C114.154 17.52 114.124 17.7067 114.064 17.8C114.004 17.8933 113.891 17.94 113.724 17.94H106.954C106.974 18.58 107.061 19.1367 107.214 19.61C107.374 20.0833 107.594 20.48 107.874 20.8C108.154 21.1133 108.487 21.35 108.874 21.51C109.261 21.6633 109.694 21.74 110.174 21.74C110.621 21.74 111.004 21.69 111.324 21.59C111.651 21.4833 111.931 21.37 112.164 21.25C112.397 21.13 112.591 21.02 112.744 20.92C112.904 20.8133 113.041 20.76 113.154 20.76C113.301 20.76 113.414 20.8167 113.494 20.93L113.994 21.58ZM126.528 12.71C127.268 12.71 127.934 12.8333 128.528 13.08C129.121 13.3267 129.628 13.6767 130.048 14.13C130.468 14.5833 130.788 15.1333 131.008 15.78C131.234 16.42 131.348 17.1367 131.348 17.93C131.348 18.73 131.234 19.45 131.008 20.09C130.788 20.73 130.468 21.2767 130.048 21.73C129.628 22.1833 129.121 22.5333 128.528 22.78C127.934 23.02 127.268 23.14 126.528 23.14C125.781 23.14 125.108 23.02 124.508 22.78C123.914 22.5333 123.408 22.1833 122.988 21.73C122.568 21.2767 122.244 20.73 122.018 20.09C121.798 19.45 121.688 18.73 121.688 17.93C121.688 17.1367 121.798 16.42 122.018 15.78C122.244 15.1333 122.568 14.5833 122.988 14.13C123.408 13.6767 123.914 13.3267 124.508 13.08C125.108 12.8333 125.781 12.71 126.528 12.71ZM126.528 21.75C127.528 21.75 128.274 21.4167 128.768 20.75C129.261 20.0767 129.508 19.14 129.508 17.94C129.508 16.7333 129.261 15.7933 128.768 15.12C128.274 14.4467 127.528 14.11 126.528 14.11C126.021 14.11 125.578 14.1967 125.198 14.37C124.824 14.5433 124.511 14.7933 124.258 15.12C124.011 15.4467 123.824 15.85 123.698 16.33C123.578 16.8033 123.518 17.34 123.518 17.94C123.518 19.14 123.764 20.0767 124.258 20.75C124.758 21.4167 125.514 21.75 126.528 21.75ZM135.685 14.34C135.905 14.0933 136.139 13.87 136.385 13.67C136.632 13.47 136.892 13.3 137.165 13.16C137.445 13.0133 137.739 12.9033 138.045 12.83C138.359 12.75 138.695 12.71 139.055 12.71C139.609 12.71 140.095 12.8033 140.515 12.99C140.942 13.17 141.295 13.43 141.575 13.77C141.862 14.1033 142.079 14.5067 142.225 14.98C142.372 15.4533 142.445 15.9767 142.445 16.55V23H140.655V16.55C140.655 15.7833 140.479 15.19 140.125 14.77C139.779 14.3433 139.249 14.13 138.535 14.13C138.009 14.13 137.515 14.2567 137.055 14.51C136.602 14.7633 136.182 15.1067 135.795 15.54V23H134.005V12.87H135.075C135.329 12.87 135.485 12.9933 135.545 13.24L135.685 14.34ZM153.435 23H151.495V8.67H153.435V23ZM170.74 15.84C170.74 16.9133 170.57 17.9 170.23 18.8C169.89 19.6933 169.41 20.4633 168.79 21.11C168.17 21.7567 167.424 22.26 166.55 22.62C165.684 22.9733 164.724 23.15 163.67 23.15C162.617 23.15 161.657 22.9733 160.79 22.62C159.924 22.26 159.18 21.7567 158.56 21.11C157.94 20.4633 157.46 19.6933 157.12 18.8C156.78 17.9 156.61 16.9133 156.61 15.84C156.61 14.7667 156.78 13.7833 157.12 12.89C157.46 11.99 157.94 11.2167 158.56 10.57C159.18 9.91667 159.924 9.41 160.79 9.05C161.657 8.69 162.617 8.51 163.67 8.51C164.724 8.51 165.684 8.69 166.55 9.05C167.424 9.41 168.17 9.91667 168.79 10.57C169.41 11.2167 169.89 11.99 170.23 12.89C170.57 13.7833 170.74 14.7667 170.74 15.84ZM168.75 15.84C168.75 14.96 168.63 14.17 168.39 13.47C168.15 12.77 167.81 12.18 167.37 11.7C166.93 11.2133 166.397 10.84 165.77 10.58C165.144 10.32 164.444 10.19 163.67 10.19C162.904 10.19 162.207 10.32 161.58 10.58C160.954 10.84 160.417 11.2133 159.97 11.7C159.53 12.18 159.19 12.77 158.95 13.47C158.71 14.17 158.59 14.96 158.59 15.84C158.59 16.72 158.71 17.51 158.95 18.21C159.19 18.9033 159.53 19.4933 159.97 19.98C160.417 20.46 160.954 20.83 161.58 21.09C162.207 21.3433 162.904 21.47 163.67 21.47C164.444 21.47 165.144 21.3433 165.77 21.09C166.397 20.83 166.93 20.46 167.37 19.98C167.81 19.4933 168.15 18.9033 168.39 18.21C168.63 17.51 168.75 16.72 168.75 15.84ZM181.246 10.91C181.186 11.01 181.119 11.0867 181.046 11.14C180.979 11.1867 180.896 11.21 180.796 11.21C180.683 11.21 180.549 11.1533 180.396 11.04C180.243 10.9267 180.049 10.8033 179.816 10.67C179.589 10.53 179.313 10.4033 178.986 10.29C178.666 10.1767 178.276 10.12 177.816 10.12C177.383 10.12 176.999 10.18 176.666 10.3C176.339 10.4133 176.063 10.57 175.836 10.77C175.616 10.97 175.449 11.2067 175.336 11.48C175.223 11.7467 175.166 12.0367 175.166 12.35C175.166 12.75 175.263 13.0833 175.456 13.35C175.656 13.61 175.916 13.8333 176.236 14.02C176.563 14.2067 176.929 14.37 177.336 14.51C177.749 14.6433 178.169 14.7833 178.596 14.93C179.029 15.0767 179.449 15.2433 179.856 15.43C180.269 15.61 180.636 15.84 180.956 16.12C181.283 16.4 181.543 16.7433 181.736 17.15C181.936 17.5567 182.036 18.0567 182.036 18.65C182.036 19.2767 181.929 19.8667 181.716 20.42C181.503 20.9667 181.189 21.4433 180.776 21.85C180.369 22.2567 179.866 22.5767 179.266 22.81C178.673 23.0433 177.996 23.16 177.236 23.16C176.303 23.16 175.456 22.9933 174.696 22.66C173.936 22.32 173.286 21.8633 172.746 21.29L173.306 20.37C173.359 20.2967 173.423 20.2367 173.496 20.19C173.576 20.1367 173.663 20.11 173.756 20.11C173.843 20.11 173.939 20.1467 174.046 20.22C174.159 20.2867 174.286 20.3733 174.426 20.48C174.566 20.5867 174.726 20.7033 174.906 20.83C175.086 20.9567 175.289 21.0733 175.516 21.18C175.749 21.2867 176.013 21.3767 176.306 21.45C176.599 21.5167 176.929 21.55 177.296 21.55C177.756 21.55 178.166 21.4867 178.526 21.36C178.886 21.2333 179.189 21.0567 179.436 20.83C179.689 20.5967 179.883 20.32 180.016 20C180.149 19.68 180.216 19.3233 180.216 18.93C180.216 18.4967 180.116 18.1433 179.916 17.87C179.723 17.59 179.466 17.3567 179.146 17.17C178.826 16.9833 178.459 16.8267 178.046 16.7C177.633 16.5667 177.213 16.4333 176.786 16.3C176.359 16.16 175.939 16 175.526 15.82C175.113 15.64 174.746 15.4067 174.426 15.12C174.106 14.8333 173.846 14.4767 173.646 14.05C173.453 13.6167 173.356 13.0833 173.356 12.45C173.356 11.9433 173.453 11.4533 173.646 10.98C173.846 10.5067 174.133 10.0867 174.506 9.72C174.886 9.35333 175.349 9.06 175.896 8.84C176.449 8.62 177.083 8.51 177.796 8.51C178.596 8.51 179.323 8.63667 179.976 8.89C180.636 9.14333 181.216 9.51 181.716 9.99L181.246 10.91ZM184.455 21.9C184.455 21.7267 184.485 21.5633 184.545 21.41C184.612 21.2567 184.699 21.1233 184.805 21.01C184.919 20.8967 185.052 20.8067 185.205 20.74C185.359 20.6733 185.522 20.64 185.695 20.64C185.869 20.64 186.032 20.6733 186.185 20.74C186.339 20.8067 186.472 20.8967 186.585 21.01C186.699 21.1233 186.789 21.2567 186.855 21.41C186.922 21.5633 186.955 21.7267 186.955 21.9C186.955 22.08 186.922 22.2467 186.855 22.4C186.789 22.5467 186.699 22.6767 186.585 22.79C186.472 22.9033 186.339 22.99 186.185 23.05C186.032 23.1167 185.869 23.15 185.695 23.15C185.522 23.15 185.359 23.1167 185.205 23.05C185.052 22.99 184.919 22.9033 184.805 22.79C184.699 22.6767 184.612 22.5467 184.545 22.4C184.485 22.2467 184.455 22.08 184.455 21.9Z" fill="#62605D"/>
<g clip-path="url(#clip0)">
<path d="M19.3347 5.05295C20.2622 3.93188 20.9142 2.4092 20.8815 0.858283C20.876 0.597834 20.6384 0.404474 20.3808 0.443791C19.0199 0.651681 17.4987 1.50399 16.557 2.60649C15.6891 3.60996 14.9189 5.16949 14.9768 6.71467C14.9855 6.94752 15.1822 7.13309 15.4151 7.12647C16.9172 7.08399 18.4001 6.18451 19.3347 5.05295Z" fill="#62605D"/>
<path d="M16.1487 6.71467C16.059 4.31895 17.8664 1.52074 20.8003 0.618635C20.7081 0.492013 20.549 0.418127 20.3808 0.443849C19.0199 0.65174 17.4987 1.50404 16.557 2.60654C15.6891 3.61002 14.9188 5.16955 14.9767 6.71473C14.9855 6.94758 15.1822 7.13315 15.4151 7.12652C15.7063 7.11826 15.9969 7.07748 16.2828 7.00934C16.204 6.93469 16.1531 6.83057 16.1487 6.71467Z" fill="#C2C2C4"/>
<path d="M26.5844 21.6369C22.2526 19.4561 21.67 13.5481 25.7926 10.5829C25.9918 10.4395 26.0357 10.1589 25.8841 9.96569C25.1865 9.07641 24.3708 8.50594 23.5874 8.13621C23.5878 8.13616 23.5884 8.13604 23.5888 8.13598C23.5302 8.10827 23.3408 8.0226 23.1746 7.95721C19.2319 6.40518 16.7471 8.78414 15.242 8.78414C14.0897 8.78414 12.3114 7.48207 10.4273 7.51764C7.95146 7.55356 5.67105 8.95788 4.39435 11.1738C2.43562 14.5736 3.08162 19.221 4.60763 22.8431C4.60769 22.8431 4.60763 22.8432 4.60763 22.8431C4.64707 22.9366 4.70906 23.0806 4.76074 23.1965C4.76068 23.1966 4.7608 23.1965 4.76074 23.1965C5.20283 24.1894 5.70908 25.0964 6.24234 25.8677C7.46672 27.6374 8.9274 29.6311 10.8466 29.5579C12.6937 29.4846 13.3921 28.3635 15.6244 28.3635C17.8552 28.3635 18.4845 29.5579 20.4377 29.5223C22.426 29.4846 23.685 27.7163 24.901 25.9381C25.9713 24.3757 26.5618 22.8507 26.7983 22.1641C26.8687 21.9594 26.7778 21.7343 26.5844 21.6369Z" fill="#62605D"/>
<path d="M7.41416 25.8676C6.8809 25.0964 6.37483 24.189 5.93268 23.1962C5.93262 23.1963 5.93262 23.1964 5.93256 23.1965C5.88305 23.0852 5.8159 22.9297 5.7794 22.8432C5.7794 22.8432 5.77945 22.8431 5.77945 22.8431C4.25596 19.2273 3.60639 14.5752 5.56617 11.1737C6.74526 9.12727 8.78057 7.77399 11.0351 7.55051C10.8342 7.52631 10.6314 7.51371 10.4272 7.51752C7.95135 7.55344 5.67094 8.95776 4.39424 11.1737C2.43551 14.5734 3.08151 19.2209 4.60752 22.843C4.60752 22.8431 4.60752 22.8431 4.60746 22.8431C4.6469 22.9366 4.70895 23.0804 4.76063 23.1964C4.76069 23.1963 4.76069 23.1962 4.76074 23.1962C5.20283 24.189 5.70897 25.0963 6.24223 25.8676C7.4666 27.6373 8.92729 29.631 10.8465 29.5577C11.0353 29.5502 11.2116 29.5314 11.3793 29.5043C9.76922 29.1777 8.49885 27.4354 7.41416 25.8676Z" fill="#C2C2C4"/>
<path d="M10.7468 30C8.56612 30.0002 6.95403 27.6698 5.88082 26.1185C3.27264 22.3463 1.36131 15.5584 4.01344 10.9552C5.18262 8.92588 7.12512 7.54899 9.34289 7.1775C9.58242 7.13725 9.80883 7.29897 9.84897 7.53832C9.88905 7.77768 9.7275 8.00426 9.48815 8.0444C7.53053 8.37229 5.81268 9.59321 4.77516 11.3939C2.29389 15.7005 4.2 22.1415 6.60381 25.6185C7.90465 27.4987 9.20672 29.1815 10.8298 29.1194C12.5542 29.0511 13.2952 27.9248 15.6244 27.9248C17.9532 27.9248 18.6105 29.1137 20.4297 29.0836C22.2414 29.0493 23.4616 27.265 24.5383 25.6908C25.5513 24.2119 26.127 22.763 26.3809 22.0273C25.4384 21.5515 23.2057 20.1272 22.6785 17.1281C22.6365 16.889 22.7962 16.6612 23.0352 16.6191C23.2746 16.5773 23.5021 16.7368 23.5442 16.9758C24.0036 19.5892 25.9617 20.8321 26.7821 21.2451C27.1697 21.4403 27.3554 21.8972 27.2138 22.308C26.9464 23.0839 26.3374 24.6195 25.2636 26.1871C24.1265 27.8498 22.711 29.9194 20.446 29.9623C18.3661 30.0012 17.7432 28.8037 15.6243 28.8037C13.4511 28.8039 12.7128 30 10.7468 30Z" fill="#62605D"/>
<path d="M15.403 7.56712C14.9409 7.56712 14.555 7.19751 14.5375 6.7321C14.429 3.83335 16.8989 0.532001 20.3144 0.010282C20.8352 -0.0694055 21.3098 0.325575 21.3208 0.849989C21.3906 4.1555 18.6237 7.47636 15.4276 7.56677C15.4194 7.567 15.4112 7.56712 15.403 7.56712ZM20.4422 0.879286C19.1812 1.07376 17.7542 1.88241 16.8912 2.89286C16.1425 3.75847 15.3642 5.20725 15.4154 6.6878C18.1466 6.60044 20.495 3.67497 20.4422 0.879286Z" fill="#62605D"/>
<path d="M23.0618 15.4407C23.0428 15.4407 23.0235 15.4395 23.0041 15.437C22.7635 15.4054 22.594 15.1847 22.6255 14.944C22.9678 12.3338 24.7689 10.7795 25.5321 10.2298C24.3591 8.7396 22.6966 8.02517 20.784 7.88243C18.4863 7.71216 16.5237 9.22447 15.242 9.22447C14.1761 9.22447 12.8449 8.34978 11.3788 8.05165C11.141 8.00331 10.9874 7.77128 11.0358 7.53339C11.0841 7.29556 11.316 7.14181 11.554 7.19033C13.0521 7.4949 14.4376 8.3455 15.242 8.3455C16.2249 8.3455 18.3528 6.82107 20.8491 7.00593C23.0176 7.16765 24.9046 8.00583 26.2301 9.69538C26.541 10.0918 26.4445 10.6564 26.0493 10.9406C25.3813 11.421 23.7954 12.7841 23.4971 15.0584C23.4679 15.2796 23.2791 15.4407 23.0618 15.4407Z" fill="#62605D"/>
</g>
<defs>
<clipPath id="clip0">
<rect width="30" height="30" fill="white"/>
</clipPath>
</defs>
</svg>
