<svg width="30" height="30" viewBox="0 0 30 30" fill="none" xmlns="http://www.w3.org/2000/svg">
<g clip-path="url(#clip0)">
<path d="M19.3347 5.05295C20.2622 3.93188 20.9142 2.4092 20.8815 0.858283C20.876 0.597834 20.6384 0.404474 20.3808 0.443791C19.0199 0.651681 17.4987 1.50399 16.557 2.60649C15.6891 3.60996 14.9189 5.16949 14.9768 6.71467C14.9855 6.94752 15.1822 7.13309 15.4151 7.12647C16.9172 7.08399 18.4001 6.18451 19.3347 5.05295Z" fill="#62605D"/>
<path d="M16.1487 6.71467C16.059 4.31895 17.8664 1.52074 20.8003 0.618635C20.7081 0.492013 20.549 0.418127 20.3808 0.443849C19.0199 0.65174 17.4987 1.50404 16.557 2.60654C15.6891 3.61002 14.9188 5.16955 14.9767 6.71473C14.9855 6.94758 15.1822 7.13315 15.4151 7.12652C15.7063 7.11826 15.9969 7.07748 16.2828 7.00934C16.204 6.93469 16.1531 6.83057 16.1487 6.71467Z" fill="#C2C2C4"/>
<path d="M26.5844 21.6369C22.2526 19.4561 21.67 13.5481 25.7926 10.5829C25.9918 10.4395 26.0357 10.1589 25.8841 9.96569C25.1865 9.07641 24.3708 8.50594 23.5874 8.13621C23.5878 8.13616 23.5884 8.13604 23.5888 8.13598C23.5302 8.10827 23.3408 8.0226 23.1746 7.95721C19.2319 6.40518 16.7471 8.78414 15.242 8.78414C14.0897 8.78414 12.3114 7.48207 10.4273 7.51764C7.95146 7.55356 5.67105 8.95788 4.39435 11.1738C2.43562 14.5736 3.08162 19.221 4.60763 22.8431C4.60769 22.8431 4.60763 22.8432 4.60763 22.8431C4.64707 22.9366 4.70906 23.0806 4.76074 23.1965C4.76068 23.1966 4.7608 23.1965 4.76074 23.1965C5.20283 24.1894 5.70908 25.0964 6.24234 25.8677C7.46672 27.6374 8.9274 29.6311 10.8466 29.5579C12.6937 29.4846 13.3921 28.3635 15.6244 28.3635C17.8552 28.3635 18.4845 29.5579 20.4377 29.5223C22.426 29.4846 23.685 27.7163 24.901 25.9381C25.9713 24.3757 26.5618 22.8507 26.7983 22.1641C26.8687 21.9594 26.7778 21.7343 26.5844 21.6369Z" fill="#62605D"/>
<path d="M7.41416 25.8676C6.8809 25.0964 6.37483 24.189 5.93268 23.1962C5.93262 23.1963 5.93262 23.1964 5.93256 23.1965C5.88305 23.0852 5.8159 22.9297 5.7794 22.8432C5.7794 22.8432 5.77945 22.8431 5.77945 22.8431C4.25596 19.2273 3.60639 14.5752 5.56617 11.1737C6.74526 9.12727 8.78057 7.77399 11.0351 7.55051C10.8342 7.52631 10.6314 7.51371 10.4272 7.51752C7.95135 7.55344 5.67094 8.95776 4.39424 11.1737C2.43551 14.5734 3.08151 19.2209 4.60752 22.843C4.60752 22.8431 4.60752 22.8431 4.60746 22.8431C4.6469 22.9366 4.70895 23.0804 4.76063 23.1964C4.76069 23.1963 4.76069 23.1962 4.76074 23.1962C5.20283 24.189 5.70897 25.0963 6.24223 25.8676C7.4666 27.6373 8.92729 29.631 10.8465 29.5577C11.0353 29.5502 11.2116 29.5314 11.3793 29.5043C9.76922 29.1777 8.49885 27.4354 7.41416 25.8676Z" fill="#C2C2C4"/>
<path d="M10.7468 30C8.56612 30.0002 6.95403 27.6698 5.88082 26.1185C3.27264 22.3463 1.36131 15.5584 4.01344 10.9552C5.18262 8.92588 7.12512 7.54899 9.34289 7.1775C9.58242 7.13725 9.80883 7.29897 9.84897 7.53832C9.88905 7.77768 9.7275 8.00426 9.48815 8.0444C7.53053 8.37229 5.81268 9.59321 4.77516 11.3939C2.29389 15.7005 4.2 22.1415 6.60381 25.6185C7.90465 27.4987 9.20672 29.1815 10.8298 29.1194C12.5542 29.0511 13.2952 27.9248 15.6244 27.9248C17.9532 27.9248 18.6105 29.1137 20.4297 29.0836C22.2414 29.0493 23.4616 27.265 24.5383 25.6908C25.5513 24.2119 26.127 22.763 26.3809 22.0273C25.4384 21.5515 23.2057 20.1272 22.6785 17.1281C22.6365 16.889 22.7962 16.6612 23.0352 16.6191C23.2746 16.5773 23.5021 16.7368 23.5442 16.9758C24.0036 19.5892 25.9617 20.8321 26.7821 21.2451C27.1697 21.4403 27.3554 21.8972 27.2138 22.308C26.9464 23.0839 26.3374 24.6195 25.2636 26.1871C24.1265 27.8498 22.711 29.9194 20.446 29.9623C18.3661 30.0012 17.7432 28.8037 15.6243 28.8037C13.4511 28.8039 12.7128 30 10.7468 30Z" fill="#62605D"/>
<path d="M15.403 7.56712C14.9409 7.56712 14.555 7.19751 14.5375 6.7321C14.429 3.83335 16.8989 0.532001 20.3144 0.010282C20.8352 -0.0694055 21.3098 0.325575 21.3208 0.849989C21.3906 4.1555 18.6237 7.47636 15.4276 7.56677C15.4194 7.567 15.4112 7.56712 15.403 7.56712ZM20.4422 0.879286C19.1812 1.07376 17.7542 1.88241 16.8912 2.89286C16.1425 3.75847 15.3642 5.20725 15.4154 6.6878C18.1466 6.60044 20.495 3.67497 20.4422 0.879286Z" fill="#62605D"/>
<path d="M23.0618 15.4407C23.0428 15.4407 23.0235 15.4395 23.0041 15.437C22.7635 15.4054 22.594 15.1847 22.6255 14.944C22.9678 12.3338 24.7689 10.7795 25.5321 10.2298C24.3591 8.7396 22.6966 8.02517 20.784 7.88243C18.4863 7.71216 16.5237 9.22447 15.242 9.22447C14.1761 9.22447 12.8449 8.34978 11.3788 8.05165C11.141 8.00331 10.9874 7.77128 11.0358 7.53339C11.0841 7.29556 11.316 7.14181 11.554 7.19033C13.0521 7.4949 14.4376 8.3455 15.242 8.3455C16.2249 8.3455 18.3528 6.82107 20.8491 7.00593C23.0176 7.16765 24.9046 8.00583 26.2301 9.69538C26.541 10.0918 26.4445 10.6564 26.0493 10.9406C25.3813 11.421 23.7954 12.7841 23.4971 15.0584C23.4679 15.2796 23.2791 15.4407 23.0618 15.4407Z" fill="#62605D"/>
</g>
<defs>
<clipPath id="clip0">
<rect width="30" height="30" fill="white"/>
</clipPath>
</defs>
</svg>
