<svg width="618" height="490" viewBox="0 0 618 490" fill="none" xmlns="http://www.w3.org/2000/svg">
<path d="M88.2302 150.326L0.948694 242.375C-0.00180662 243.378 0.32598 245.019 1.5886 245.579L78.6503 279.784C79.3885 280.112 79.8572 280.852 79.8383 281.659L76.794 411.597C76.7733 412.479 77.3321 413.269 78.1696 413.544L310.448 489.795C310.854 489.928 311.293 489.928 311.699 489.793L542.46 413.535C543.279 413.264 543.833 412.499 543.833 411.636V286.207C543.833 285.405 544.312 284.68 545.051 284.366L616.527 254.027C617.76 253.503 618.14 251.94 617.284 250.909L539.13 156.696C538.82 156.322 538.384 156.074 537.905 155.998L461.687 143.873C460.653 143.709 459.921 142.774 460.008 141.731L468.5 40.7118C468.592 39.6211 467.79 38.6592 466.7 38.5536L381.861 30.3259C381.06 30.2482 380.29 30.6585 379.908 31.367L321.943 138.808C321.061 140.444 318.619 140.096 318.228 138.278L290.646 9.97821C290.462 9.12578 289.748 8.4903 288.88 8.40759L202.546 0.180175C201.487 0.0791962 200.533 0.825849 200.378 1.87884L181.167 131.903C181.041 132.753 180.387 133.428 179.541 133.579L89.329 149.733C88.9089 149.808 88.5239 150.016 88.2302 150.326Z" fill="#FAECD7"/>
</svg>
