<svg width="30" height="22" viewBox="0 0 30 22" fill="none" xmlns="http://www.w3.org/2000/svg">
<path d="M0.937476 1.87495H29.0624C29.58 1.87495 29.9999 1.45492 29.9999 0.937476C29.9999 0.419955 29.5799 0 29.0624 0H0.937476C0.419955 0 0 0.420033 0 0.937476C0 1.45492 0.420033 1.87495 0.937476 1.87495Z" fill="#003049"/>
<path d="M3.35935 8.54164H29.1406C29.615 8.54164 30 8.12161 30 7.60416C30 7.08664 29.615 6.66669 29.1406 6.66669H3.35935C2.88496 6.66669 2.5 7.08672 2.5 7.60416C2.5 8.12161 2.88503 8.54164 3.35935 8.54164Z" fill="#003049"/>
<path d="M8.20311 15.2083H29.2969C29.685 15.2083 30 14.7882 30 14.2708C30 13.7533 29.685 13.3333 29.2969 13.3333H8.20311C7.81497 13.3333 7.5 13.7533 7.5 14.2708C7.5 14.7882 7.81503 15.2083 8.20311 15.2083Z" fill="#003049"/>
<path d="M0.937476 21.875H29.0624C29.58 21.875 29.9999 21.4549 29.9999 20.9375C29.9999 20.42 29.5799 20 29.0624 20H0.937476C0.419955 20 0 20.42 0 20.9375C0 21.4549 0.420033 21.875 0.937476 21.875Z" fill="#003049"/>
</svg>
