<svg width="227" height="514" viewBox="0 0 227 514" fill="none" xmlns="http://www.w3.org/2000/svg">
<g filter="url(#filter0_d)">
<path d="M184 266L222.993 291.912L208.099 333.838H159.901L145.007 291.912L184 266Z" fill="#FADED5"/>
</g>
<g filter="url(#filter1_d)">
<path d="M66.0352 24.1627L84.8339 67.0406L49.64 94.2625L9.09019 68.2087L19.223 24.8846L66.0352 24.1627Z" fill="#FADED5"/>
</g>
<g filter="url(#filter2_d)">
<path d="M127.753 95.0248C125.133 94.7784 122.695 96.3898 122.025 98.935L119.624 108.057C150.04 108.947 170.616 129.231 171.903 159.448L181.134 156.89C183.682 156.183 185.266 153.699 184.963 151.07C181.578 121.763 157.243 97.8083 127.753 95.0248ZM118.274 113.182L102.087 174.703C101.969 175.15 101.971 175.62 102.093 176.066C102.215 176.512 102.453 176.917 102.781 177.242C103.11 177.567 103.519 177.799 103.966 177.915C104.413 178.032 104.884 178.028 105.329 177.905L166.77 160.866C166.078 132.514 146.817 113.506 118.274 113.188V113.182ZM122.748 162.441C121.722 162.441 120.719 162.136 119.866 161.566C119.013 160.996 118.348 160.186 117.955 159.238C117.563 158.29 117.46 157.247 117.66 156.241C117.86 155.234 118.354 154.31 119.08 153.585C119.805 152.859 120.73 152.365 121.736 152.165C122.742 151.965 123.785 152.067 124.733 152.46C125.681 152.853 126.492 153.518 127.062 154.371C127.632 155.224 127.936 156.227 127.936 157.253C127.936 158.629 127.389 159.948 126.416 160.921C125.444 161.894 124.124 162.441 122.748 162.441ZM130.53 137.799C129.504 137.799 128.501 137.495 127.648 136.925C126.794 136.355 126.13 135.544 125.737 134.597C125.344 133.649 125.242 132.606 125.442 131.599C125.642 130.593 126.136 129.669 126.861 128.943C127.587 128.218 128.511 127.723 129.518 127.523C130.524 127.323 131.567 127.426 132.515 127.818C133.463 128.211 134.273 128.876 134.843 129.729C135.413 130.582 135.717 131.585 135.717 132.611C135.717 133.987 135.171 135.307 134.198 136.28C133.225 137.252 131.906 137.799 130.53 137.799ZM147.39 154.659C146.364 154.659 145.361 154.355 144.508 153.785C143.654 153.215 142.989 152.404 142.597 151.457C142.204 150.509 142.101 149.466 142.302 148.459C142.502 147.453 142.996 146.529 143.721 145.803C144.447 145.078 145.371 144.583 146.378 144.383C147.384 144.183 148.427 144.286 149.375 144.679C150.323 145.071 151.133 145.736 151.703 146.589C152.273 147.442 152.577 148.445 152.577 149.471C152.577 150.847 152.031 152.167 151.058 153.14C150.085 154.112 148.765 154.659 147.39 154.659Z" fill="#FADED5"/>
</g>
<g filter="url(#filter3_d)">
<path d="M123.115 470.86L58.278 452.313C56.2939 451.745 54.1644 451.993 52.358 453.002C50.5516 454.011 49.2162 455.698 48.6457 457.692C48.0752 459.687 48.3162 461.825 49.3158 463.636C50.3154 465.448 51.9916 466.785 53.9757 467.352L118.812 485.9C120.797 486.467 122.926 486.219 124.733 485.21C126.539 484.202 127.874 482.514 128.445 480.52C129.015 478.526 128.774 476.387 127.775 474.576C126.775 472.764 125.099 471.428 123.115 470.86V470.86ZM119.872 491.626L50.0479 471.652C49.3865 471.463 48.6767 471.545 48.0746 471.882C47.4724 472.218 47.0273 472.78 46.8371 473.445L46.1201 475.952C45.3594 478.611 45.6808 481.462 47.0135 483.877C48.3463 486.293 50.5813 488.075 53.2268 488.832L108.089 504.526C110.734 505.283 113.573 504.952 115.982 503.607C118.391 502.262 120.171 500.012 120.932 497.353L121.649 494.846C121.839 494.181 121.759 493.469 121.425 492.865C121.092 492.261 120.533 491.815 119.872 491.626ZM61.3705 447.774L122.891 465.373C128.279 466.914 133.371 460.93 131.718 455.037C128.365 443.076 116.87 431.126 100.735 426.494C84.5931 421.893 68.5159 425.955 59.3446 434.332C54.8222 438.459 55.9825 446.232 61.3705 447.774ZM117.1 444.734C117.593 444.875 118.033 445.16 118.364 445.553C118.696 445.945 118.903 446.428 118.961 446.94C119.019 447.452 118.924 447.97 118.688 448.429C118.453 448.888 118.088 449.267 117.639 449.517C117.19 449.768 116.677 449.88 116.166 449.838C115.654 449.796 115.167 449.603 114.766 449.283C114.364 448.963 114.067 448.531 113.911 448.04C113.755 447.549 113.747 447.023 113.889 446.527C114.079 445.862 114.524 445.3 115.126 444.964C115.728 444.627 116.438 444.545 117.1 444.734V444.734ZM98.584 434.014C99.0772 434.155 99.5173 434.44 99.8486 434.833C100.18 435.225 100.387 435.708 100.445 436.22C100.503 436.732 100.408 437.25 100.173 437.709C99.9375 438.168 99.5722 438.546 99.1232 438.797C98.6742 439.048 98.1615 439.16 97.6501 439.118C97.1387 439.076 96.6515 438.883 96.2501 438.563C95.8487 438.243 95.5512 437.81 95.3951 437.32C95.239 436.829 95.2314 436.303 95.3732 435.807C95.5634 435.142 96.0085 434.58 96.6106 434.244C97.2128 433.907 97.9226 433.825 98.584 434.014V434.014ZM77.2001 433.32C77.6933 433.461 78.1334 433.746 78.4647 434.139C78.796 434.532 79.0036 435.014 79.0613 435.526C79.1191 436.038 79.0243 436.557 78.789 437.015C78.5536 437.474 78.1884 437.853 77.7393 438.103C77.2903 438.354 76.7777 438.466 76.2663 438.424C75.7549 438.383 75.2677 438.19 74.8663 437.869C74.4649 437.549 74.1673 437.117 74.0112 436.626C73.8551 436.135 73.8475 435.609 73.9893 435.113C74.1795 434.448 74.6246 433.886 75.2267 433.55C75.8289 433.213 76.5387 433.131 77.2001 433.32V433.32Z" fill="#FADED5"/>
</g>
<defs>
<filter id="filter0_d" x="141.007" y="263" width="85.9866" height="75.8381" filterUnits="userSpaceOnUse" color-interpolation-filters="sRGB">
<feFlood flood-opacity="0" result="BackgroundImageFix"/>
<feColorMatrix in="SourceAlpha" type="matrix" values="0 0 0 0 0 0 0 0 0 0 0 0 0 0 0 0 0 0 127 0"/>
<feOffset dy="1"/>
<feGaussianBlur stdDeviation="2"/>
<feColorMatrix type="matrix" values="0 0 0 0 0 0 0 0 0 0 0 0 0 0 0 0 0 0 0.25 0"/>
<feBlend mode="normal" in2="BackgroundImageFix" result="effect1_dropShadow"/>
<feBlend mode="normal" in="SourceGraphic" in2="effect1_dropShadow" result="shape"/>
</filter>
<filter id="filter1_d" x="-7.44037" y="0.0847168" width="110.281" height="107.229" filterUnits="userSpaceOnUse" color-interpolation-filters="sRGB">
<feFlood flood-opacity="0" result="BackgroundImageFix"/>
<feColorMatrix in="SourceAlpha" type="matrix" values="0 0 0 0 0 0 0 0 0 0 0 0 0 0 0 0 0 0 127 0"/>
<feOffset dy="1"/>
<feGaussianBlur stdDeviation="2"/>
<feColorMatrix type="matrix" values="0 0 0 0 0 0 0 0 0 0 0 0 0 0 0 0 0 0 0.25 0"/>
<feBlend mode="normal" in2="BackgroundImageFix" result="effect1_dropShadow"/>
<feBlend mode="normal" in="SourceGraphic" in2="effect1_dropShadow" result="shape"/>
</filter>
<filter id="filter2_d" x="98" y="92" width="91" height="91" filterUnits="userSpaceOnUse" color-interpolation-filters="sRGB">
<feFlood flood-opacity="0" result="BackgroundImageFix"/>
<feColorMatrix in="SourceAlpha" type="matrix" values="0 0 0 0 0 0 0 0 0 0 0 0 0 0 0 0 0 0 127 0"/>
<feOffset dy="1"/>
<feGaussianBlur stdDeviation="2"/>
<feColorMatrix type="matrix" values="0 0 0 0 0 0 0 0 0 0 0 0 0 0 0 0 0 0 0.25 0"/>
<feBlend mode="normal" in2="BackgroundImageFix" result="effect1_dropShadow"/>
<feBlend mode="normal" in="SourceGraphic" in2="effect1_dropShadow" result="shape"/>
</filter>
<filter id="filter3_d" x="36.7581" y="412.08" width="107.877" height="101.012" filterUnits="userSpaceOnUse" color-interpolation-filters="sRGB">
<feFlood flood-opacity="0" result="BackgroundImageFix"/>
<feColorMatrix in="SourceAlpha" type="matrix" values="0 0 0 0 0 0 0 0 0 0 0 0 0 0 0 0 0 0 127 0"/>
<feOffset dy="1"/>
<feGaussianBlur stdDeviation="2"/>
<feColorMatrix type="matrix" values="0 0 0 0 0 0 0 0 0 0 0 0 0 0 0 0 0 0 0.25 0"/>
<feBlend mode="normal" in2="BackgroundImageFix" result="effect1_dropShadow"/>
<feBlend mode="normal" in="SourceGraphic" in2="effect1_dropShadow" result="shape"/>
</filter>
</defs>
</svg>
