<svg width="646" height="520" viewBox="0 0 646 520" fill="none" xmlns="http://www.w3.org/2000/svg">
<g filter="url(#filter0_d)">
<path d="M103.23 160.326L15.9487 252.375C14.9982 253.378 15.326 255.019 16.5886 255.579L93.6503 289.784C94.3885 290.112 94.8572 290.852 94.8383 291.659L91.794 421.597C91.7733 422.479 92.3321 423.269 93.1696 423.544L325.448 499.795C325.854 499.928 326.293 499.928 326.699 499.793L557.46 423.535C558.279 423.264 558.833 422.499 558.833 421.636V296.207C558.833 295.405 559.312 294.68 560.051 294.366L631.527 264.027C632.76 263.503 633.14 261.94 632.284 260.909L554.13 166.696C553.82 166.322 553.384 166.074 552.905 165.998L476.687 153.873C475.653 153.709 474.921 152.774 475.008 151.731L483.5 50.7118C483.592 49.6211 482.79 48.6592 481.7 48.5536L396.861 40.3259C396.06 40.2482 395.29 40.6585 394.908 41.367L336.943 148.808C336.061 150.444 333.619 150.096 333.228 148.278L305.646 19.9782C305.462 19.1258 304.748 18.4903 303.88 18.4076L217.546 10.1802C216.487 10.0792 215.533 10.8258 215.378 11.8788L196.167 141.903C196.041 142.753 195.387 143.428 194.541 143.579L104.329 159.733C103.909 159.808 103.524 160.016 103.23 160.326Z" fill="#FAECD7"/>
</g>
<defs>
<filter id="filter0_d" x="0.399506" y="0.171021" width="647.346" height="519.723" filterUnits="userSpaceOnUse" color-interpolation-filters="sRGB">
<feFlood flood-opacity="0" result="BackgroundImageFix"/>
<feColorMatrix in="SourceAlpha" type="matrix" values="0 0 0 0 0 0 0 0 0 0 0 0 0 0 0 0 0 0 127 0"/>
<feOffset dy="5"/>
<feGaussianBlur stdDeviation="7.5"/>
<feColorMatrix type="matrix" values="0 0 0 0 0 0 0 0 0 0 0 0 0 0 0 0 0 0 0.25 0"/>
<feBlend mode="normal" in2="BackgroundImageFix" result="effect1_dropShadow"/>
<feBlend mode="normal" in="SourceGraphic" in2="effect1_dropShadow" result="shape"/>
</filter>
</defs>
</svg>
